<?xml version="1.0" encoding="UTF-8" standalone="no"?>
<!DOCTYPE svg PUBLIC "-//W3C//DTD SVG 1.1//EN"
 "http://www.w3.org/Graphics/SVG/1.1/DTD/svg11.dtd">
<!-- Generated by graphviz version 3.0.0 (20220226.1711)
 -->
<!-- Pages: 1 -->
<svg width="2391pt" height="620pt"
 viewBox="0.00 0.00 2391.05 620.00" xmlns="http://www.w3.org/2000/svg" xmlns:xlink="http://www.w3.org/1999/xlink">
<g id="graph0" class="graph" transform="scale(1 1) rotate(0) translate(4 616)">
<polygon fill="white" stroke="transparent" points="-4,4 -4,-616 2387.05,-616 2387.05,4 -4,4"/>
<!-- [root] aws_elb.web (expand) -->
<g id="node1" class="node">
<title>[root] aws_elb.web (expand)</title>
<polygon fill="none" stroke="black" points="940.78,-468 853.78,-468 853.78,-432 940.78,-432 940.78,-468"/>
<text text-anchor="middle" x="897.28" y="-446.3" font-family="Times,serif" font-size="14.00">aws_elb.web</text>
</g>
<!-- [root] aws_instance.web (expand) -->
<g id="node2" class="node">
<title>[root] aws_instance.web (expand)</title>
<polygon fill="none" stroke="black" points="607.78,-396 492.78,-396 492.78,-360 607.78,-360 607.78,-396"/>
<text text-anchor="middle" x="550.28" y="-374.3" font-family="Times,serif" font-size="14.00">aws_instance.web</text>
</g>
<!-- [root] aws_elb.web (expand)&#45;&gt;[root] aws_instance.web (expand) -->
<g id="edge1" class="edge">
<title>[root] aws_elb.web (expand)&#45;&gt;[root] aws_instance.web (expand)</title>
<path fill="none" stroke="black" d="M853.59,-435.89C848.45,-434.5 843.26,-433.17 838.28,-432 763.43,-414.38 676.5,-399.08 617.88,-389.51"/>
<polygon fill="black" stroke="black" points="618.44,-386.05 608,-387.9 617.32,-392.96 618.44,-386.05"/>
</g>
<!-- [root] aws_security_group.web_inbound_sg (expand) -->
<g id="node4" class="node">
<title>[root] aws_security_group.web_inbound_sg (expand)</title>
<polygon fill="none" stroke="black" points="1047.78,-396 826.78,-396 826.78,-360 1047.78,-360 1047.78,-396"/>
<text text-anchor="middle" x="937.28" y="-374.3" font-family="Times,serif" font-size="14.00">aws_security_group.web_inbound_sg</text>
</g>
<!-- [root] aws_elb.web (expand)&#45;&gt;[root] aws_security_group.web_inbound_sg (expand) -->
<g id="edge2" class="edge">
<title>[root] aws_elb.web (expand)&#45;&gt;[root] aws_security_group.web_inbound_sg (expand)</title>
<path fill="none" stroke="black" d="M907.17,-431.7C911.77,-423.64 917.34,-413.89 922.44,-404.98"/>
<polygon fill="black" stroke="black" points="925.59,-406.52 927.51,-396.1 919.51,-403.05 925.59,-406.52"/>
</g>
<!-- [root] aws_security_group.web_host_sg (expand) -->
<g id="node3" class="node">
<title>[root] aws_security_group.web_host_sg (expand)</title>
<polygon fill="none" stroke="black" points="1190.28,-324 990.28,-324 990.28,-288 1190.28,-288 1190.28,-324"/>
<text text-anchor="middle" x="1090.28" y="-302.3" font-family="Times,serif" font-size="14.00">aws_security_group.web_host_sg</text>
</g>
<!-- [root] aws_instance.web (expand)&#45;&gt;[root] aws_security_group.web_host_sg (expand) -->
<g id="edge3" class="edge">
<title>[root] aws_instance.web (expand)&#45;&gt;[root] aws_security_group.web_host_sg (expand)</title>
<path fill="none" stroke="black" d="M607.82,-369.54C696.25,-358.08 867.18,-335.92 980.01,-321.29"/>
<polygon fill="black" stroke="black" points="980.59,-324.75 990.06,-319.99 979.69,-317.81 980.59,-324.75"/>
</g>
<!-- [root] var.ami -->
<g id="node13" class="node">
<title>[root] var.ami</title>
<polygon fill="none" stroke="black" points="109.28,-324 57.28,-324 57.28,-288 115.28,-288 115.28,-318 109.28,-324"/>
<polyline fill="none" stroke="black" points="109.28,-324 109.28,-318 "/>
<polyline fill="none" stroke="black" points="115.28,-318 109.28,-318 "/>
<text text-anchor="middle" x="86.28" y="-302.3" font-family="Times,serif" font-size="14.00">var.ami</text>
</g>
<!-- [root] aws_instance.web (expand)&#45;&gt;[root] var.ami -->
<g id="edge5" class="edge">
<title>[root] aws_instance.web (expand)&#45;&gt;[root] var.ami</title>
<path fill="none" stroke="black" d="M492.72,-375.23C411.8,-371.58 260.1,-360.41 125.11,-323.75"/>
<polygon fill="black" stroke="black" points="125.99,-320.36 115.42,-321.07 124.12,-327.11 125.99,-320.36"/>
</g>
<!-- [root] var.instance_ips -->
<g id="node14" class="node">
<title>[root] var.instance_ips</title>
<polygon fill="none" stroke="black" points="231.28,-324 133.28,-324 133.28,-288 237.28,-288 237.28,-318 231.28,-324"/>
<polyline fill="none" stroke="black" points="231.28,-324 231.28,-318 "/>
<polyline fill="none" stroke="black" points="237.28,-318 231.28,-318 "/>
<text text-anchor="middle" x="185.28" y="-302.3" font-family="Times,serif" font-size="14.00">var.instance_ips</text>
</g>
<!-- [root] aws_instance.web (expand)&#45;&gt;[root] var.instance_ips -->
<g id="edge6" class="edge">
<title>[root] aws_instance.web (expand)&#45;&gt;[root] var.instance_ips</title>
<path fill="none" stroke="black" d="M492.51,-368.67C433.27,-359.74 338.3,-344.35 247.36,-324.13"/>
<polygon fill="black" stroke="black" points="247.96,-320.68 237.44,-321.9 246.43,-327.51 247.96,-320.68"/>
</g>
<!-- [root] var.instance_type -->
<g id="node15" class="node">
<title>[root] var.instance_type</title>
<polygon fill="none" stroke="black" points="360.78,-324 255.78,-324 255.78,-288 366.78,-288 366.78,-318 360.78,-324"/>
<polyline fill="none" stroke="black" points="360.78,-324 360.78,-318 "/>
<polyline fill="none" stroke="black" points="366.78,-318 360.78,-318 "/>
<text text-anchor="middle" x="311.28" y="-302.3" font-family="Times,serif" font-size="14.00">var.instance_type</text>
</g>
<!-- [root] aws_instance.web (expand)&#45;&gt;[root] var.instance_type -->
<g id="edge7" class="edge">
<title>[root] aws_instance.web (expand)&#45;&gt;[root] var.instance_type</title>
<path fill="none" stroke="black" d="M492.73,-360.14C457.89,-349.94 413.33,-336.89 377.08,-326.27"/>
<polygon fill="black" stroke="black" points="377.68,-322.8 367.1,-323.35 375.71,-329.52 377.68,-322.8"/>
</g>
<!-- [root] var.key_name -->
<g id="node16" class="node">
<title>[root] var.key_name</title>
<polygon fill="none" stroke="black" points="471.78,-324 384.78,-324 384.78,-288 477.78,-288 477.78,-318 471.78,-324"/>
<polyline fill="none" stroke="black" points="471.78,-324 471.78,-318 "/>
<polyline fill="none" stroke="black" points="477.78,-318 471.78,-318 "/>
<text text-anchor="middle" x="431.28" y="-302.3" font-family="Times,serif" font-size="14.00">var.key_name</text>
</g>
<!-- [root] aws_instance.web (expand)&#45;&gt;[root] var.key_name -->
<g id="edge8" class="edge">
<title>[root] aws_instance.web (expand)&#45;&gt;[root] var.key_name</title>
<path fill="none" stroke="black" d="M521.17,-359.88C505.61,-350.72 486.26,-339.34 469.51,-329.48"/>
<polygon fill="black" stroke="black" points="470.9,-326.24 460.51,-324.19 467.35,-332.28 470.9,-326.24"/>
</g>
<!-- [root] module.vpc_basic.output.public_subnet_id (expand) -->
<g id="node18" class="node">
<title>[root] module.vpc_basic.output.public_subnet_id (expand)</title>
<ellipse fill="none" stroke="black" cx="715.28" cy="-306" rx="219.06" ry="18"/>
<text text-anchor="middle" x="715.28" y="-302.3" font-family="Times,serif" font-size="14.00">[root] module.vpc_basic.output.public_subnet_id (expand)</text>
</g>
<!-- [root] aws_instance.web (expand)&#45;&gt;[root] module.vpc_basic.output.public_subnet_id (expand) -->
<g id="edge4" class="edge">
<title>[root] aws_instance.web (expand)&#45;&gt;[root] module.vpc_basic.output.public_subnet_id (expand)</title>
<path fill="none" stroke="black" d="M590.65,-359.88C613.47,-350.19 642.18,-338.01 666.29,-327.79"/>
<polygon fill="black" stroke="black" points="667.78,-330.95 675.62,-323.83 665.05,-324.51 667.78,-330.95"/>
</g>
<!-- [root] module.vpc_basic.output.cidr (expand) -->
<g id="node19" class="node">
<title>[root] module.vpc_basic.output.cidr (expand)</title>
<ellipse fill="none" stroke="black" cx="1335.28" cy="-234" rx="172.47" ry="18"/>
<text text-anchor="middle" x="1335.28" y="-230.3" font-family="Times,serif" font-size="14.00">[root] module.vpc_basic.output.cidr (expand)</text>
</g>
<!-- [root] aws_security_group.web_host_sg (expand)&#45;&gt;[root] module.vpc_basic.output.cidr (expand) -->
<g id="edge9" class="edge">
<title>[root] aws_security_group.web_host_sg (expand)&#45;&gt;[root] module.vpc_basic.output.cidr (expand)</title>
<path fill="none" stroke="black" d="M1149.9,-287.97C1186.05,-277.64 1232.22,-264.45 1269.44,-253.81"/>
<polygon fill="black" stroke="black" points="1270.53,-257.14 1279.19,-251.03 1268.61,-250.41 1270.53,-257.14"/>
</g>
<!-- [root] module.vpc_basic.output.vpc_id (expand) -->
<g id="node20" class="node">
<title>[root] module.vpc_basic.output.vpc_id (expand)</title>
<ellipse fill="none" stroke="black" cx="962.28" cy="-234" rx="182.77" ry="18"/>
<text text-anchor="middle" x="962.28" y="-230.3" font-family="Times,serif" font-size="14.00">[root] module.vpc_basic.output.vpc_id (expand)</text>
</g>
<!-- [root] aws_security_group.web_host_sg (expand)&#45;&gt;[root] module.vpc_basic.output.vpc_id (expand) -->
<g id="edge10" class="edge">
<title>[root] aws_security_group.web_host_sg (expand)&#45;&gt;[root] module.vpc_basic.output.vpc_id (expand)</title>
<path fill="none" stroke="black" d="M1058.97,-287.88C1041.88,-278.53 1020.53,-266.85 1002.24,-256.85"/>
<polygon fill="black" stroke="black" points="1003.72,-253.67 993.27,-251.95 1000.37,-259.82 1003.72,-253.67"/>
</g>
<!-- [root] aws_security_group.web_inbound_sg (expand)&#45;&gt;[root] module.vpc_basic.output.vpc_id (expand) -->
<g id="edge11" class="edge">
<title>[root] aws_security_group.web_inbound_sg (expand)&#45;&gt;[root] module.vpc_basic.output.vpc_id (expand)</title>
<path fill="none" stroke="black" d="M940.3,-359.87C944.56,-335.67 952.39,-291.21 957.46,-262.39"/>
<polygon fill="black" stroke="black" points="960.97,-262.64 959.26,-252.19 954.08,-261.43 960.97,-262.64"/>
</g>
<!-- [root] module.vpc_basic.aws_internet_gateway.tfb (expand) -->
<g id="node5" class="node">
<title>[root] module.vpc_basic.aws_internet_gateway.tfb (expand)</title>
<polygon fill="none" stroke="black" points="1783.28,-252 1525.28,-252 1525.28,-216 1783.28,-216 1783.28,-252"/>
<text text-anchor="middle" x="1654.28" y="-230.3" font-family="Times,serif" font-size="14.00">module.vpc_basic.aws_internet_gateway.tfb</text>
</g>
<!-- [root] module.vpc_basic.aws_vpc.tfb (expand) -->
<g id="node8" class="node">
<title>[root] module.vpc_basic.aws_vpc.tfb (expand)</title>
<polygon fill="none" stroke="black" points="1427.78,-180 1242.78,-180 1242.78,-144 1427.78,-144 1427.78,-180"/>
<text text-anchor="middle" x="1335.28" y="-158.3" font-family="Times,serif" font-size="14.00">module.vpc_basic.aws_vpc.tfb</text>
</g>
<!-- [root] module.vpc_basic.aws_internet_gateway.tfb (expand)&#45;&gt;[root] module.vpc_basic.aws_vpc.tfb (expand) -->
<g id="edge16" class="edge">
<title>[root] module.vpc_basic.aws_internet_gateway.tfb (expand)&#45;&gt;[root] module.vpc_basic.aws_vpc.tfb (expand)</title>
<path fill="none" stroke="black" d="M1576.65,-215.97C1530.16,-205.76 1470.92,-192.76 1422.77,-182.2"/>
<polygon fill="black" stroke="black" points="1423.5,-178.77 1412.98,-180.05 1422,-185.61 1423.5,-178.77"/>
</g>
<!-- [root] module.vpc_basic.aws_route.internet_access (expand) -->
<g id="node6" class="node">
<title>[root] module.vpc_basic.aws_route.internet_access (expand)</title>
<polygon fill="none" stroke="black" points="1545.78,-324 1284.78,-324 1284.78,-288 1545.78,-288 1545.78,-324"/>
<text text-anchor="middle" x="1415.28" y="-302.3" font-family="Times,serif" font-size="14.00">module.vpc_basic.aws_route.internet_access</text>
</g>
<!-- [root] module.vpc_basic.aws_route.internet_access (expand)&#45;&gt;[root] module.vpc_basic.aws_internet_gateway.tfb (expand) -->
<g id="edge17" class="edge">
<title>[root] module.vpc_basic.aws_route.internet_access (expand)&#45;&gt;[root] module.vpc_basic.aws_internet_gateway.tfb (expand)</title>
<path fill="none" stroke="black" d="M1473.44,-287.97C1507.42,-278.01 1550.47,-265.41 1586.04,-254.99"/>
<polygon fill="black" stroke="black" points="1587.25,-258.28 1595.86,-252.11 1585.28,-251.56 1587.25,-258.28"/>
</g>
<!-- [root] module.vpc_basic.aws_subnet.public (expand) -->
<g id="node7" class="node">
<title>[root] module.vpc_basic.aws_subnet.public (expand)</title>
<polygon fill="none" stroke="black" points="761.28,-252 541.28,-252 541.28,-216 761.28,-216 761.28,-252"/>
<text text-anchor="middle" x="651.28" y="-230.3" font-family="Times,serif" font-size="14.00">module.vpc_basic.aws_subnet.public</text>
</g>
<!-- [root] module.vpc_basic.aws_subnet.public (expand)&#45;&gt;[root] module.vpc_basic.aws_vpc.tfb (expand) -->
<g id="edge18" class="edge">
<title>[root] module.vpc_basic.aws_subnet.public (expand)&#45;&gt;[root] module.vpc_basic.aws_vpc.tfb (expand)</title>
<path fill="none" stroke="black" d="M761.48,-217.07C764.44,-216.7 767.38,-216.34 770.28,-216 931.5,-196.93 1119.26,-180.45 1232.6,-171.13"/>
<polygon fill="black" stroke="black" points="1232.97,-174.61 1242.65,-170.31 1232.4,-167.64 1232.97,-174.61"/>
</g>
<!-- [root] module.vpc_basic.var.map_public_ip_on_launch (expand) -->
<g id="node22" class="node">
<title>[root] module.vpc_basic.var.map_public_ip_on_launch (expand)</title>
<ellipse fill="none" stroke="black" cx="651.28" cy="-162" rx="241.26" ry="18"/>
<text text-anchor="middle" x="651.28" y="-158.3" font-family="Times,serif" font-size="14.00">[root] module.vpc_basic.var.map_public_ip_on_launch (expand)</text>
</g>
<!-- [root] module.vpc_basic.aws_subnet.public (expand)&#45;&gt;[root] module.vpc_basic.var.map_public_ip_on_launch (expand) -->
<g id="edge19" class="edge">
<title>[root] module.vpc_basic.aws_subnet.public (expand)&#45;&gt;[root] module.vpc_basic.var.map_public_ip_on_launch (expand)</title>
<path fill="none" stroke="black" d="M651.28,-215.7C651.28,-207.98 651.28,-198.71 651.28,-190.11"/>
<polygon fill="black" stroke="black" points="654.78,-190.1 651.28,-180.1 647.78,-190.1 654.78,-190.1"/>
</g>
<!-- [root] module.vpc_basic.var.public_subnet (expand) -->
<g id="node23" class="node">
<title>[root] module.vpc_basic.var.public_subnet (expand)</title>
<ellipse fill="none" stroke="black" cx="196.28" cy="-162" rx="196.07" ry="18"/>
<text text-anchor="middle" x="196.28" y="-158.3" font-family="Times,serif" font-size="14.00">[root] module.vpc_basic.var.public_subnet (expand)</text>
</g>
<!-- [root] module.vpc_basic.aws_subnet.public (expand)&#45;&gt;[root] module.vpc_basic.var.public_subnet (expand) -->
<g id="edge20" class="edge">
<title>[root] module.vpc_basic.aws_subnet.public (expand)&#45;&gt;[root] module.vpc_basic.var.public_subnet (expand)</title>
<path fill="none" stroke="black" d="M541.14,-216.05C468.55,-204.89 374,-190.34 302.26,-179.3"/>
<polygon fill="black" stroke="black" points="302.71,-175.83 292.3,-177.77 301.65,-182.75 302.71,-175.83"/>
</g>
<!-- [root] provider[&quot;registry.terraform.io/hashicorp/aws&quot;] -->
<g id="node12" class="node">
<title>[root] provider[&quot;registry.terraform.io/hashicorp/aws&quot;]</title>
<polygon fill="none" stroke="black" points="2130.28,-108 1877.75,-90 2130.28,-72 2382.82,-90 2130.28,-108"/>
<text text-anchor="middle" x="2130.28" y="-86.3" font-family="Times,serif" font-size="14.00">provider[&quot;registry.terraform.io/hashicorp/aws&quot;]</text>
</g>
<!-- [root] module.vpc_basic.aws_vpc.tfb (expand)&#45;&gt;[root] provider[&quot;registry.terraform.io/hashicorp/aws&quot;] -->
<g id="edge25" class="edge">
<title>[root] module.vpc_basic.aws_vpc.tfb (expand)&#45;&gt;[root] provider[&quot;registry.terraform.io/hashicorp/aws&quot;]</title>
<path fill="none" stroke="black" d="M1428.04,-152.83C1573.22,-140.05 1853.97,-115.33 2012.99,-101.33"/>
<polygon fill="black" stroke="black" points="2013.63,-104.79 2023.28,-100.42 2013.01,-97.81 2013.63,-104.79"/>
</g>
<!-- [root] module.vpc_basic.var.cidr (expand) -->
<g id="node24" class="node">
<title>[root] module.vpc_basic.var.cidr (expand)</title>
<ellipse fill="none" stroke="black" cx="1699.28" cy="-90" rx="160.57" ry="18"/>
<text text-anchor="middle" x="1699.28" y="-86.3" font-family="Times,serif" font-size="14.00">[root] module.vpc_basic.var.cidr (expand)</text>
</g>
<!-- [root] module.vpc_basic.aws_vpc.tfb (expand)&#45;&gt;[root] module.vpc_basic.var.cidr (expand) -->
<g id="edge21" class="edge">
<title>[root] module.vpc_basic.aws_vpc.tfb (expand)&#45;&gt;[root] module.vpc_basic.var.cidr (expand)</title>
<path fill="none" stroke="black" d="M1423.86,-143.97C1481.04,-132.97 1555.08,-118.73 1612,-107.79"/>
<polygon fill="black" stroke="black" points="1612.9,-111.18 1622.06,-105.85 1611.58,-104.3 1612.9,-111.18"/>
</g>
<!-- [root] module.vpc_basic.var.enable_dns_hostnames (expand) -->
<g id="node25" class="node">
<title>[root] module.vpc_basic.var.enable_dns_hostnames (expand)</title>
<ellipse fill="none" stroke="black" cx="490.28" cy="-90" rx="228.26" ry="18"/>
<text text-anchor="middle" x="490.28" y="-86.3" font-family="Times,serif" font-size="14.00">[root] module.vpc_basic.var.enable_dns_hostnames (expand)</text>
</g>
<!-- [root] module.vpc_basic.aws_vpc.tfb (expand)&#45;&gt;[root] module.vpc_basic.var.enable_dns_hostnames (expand) -->
<g id="edge22" class="edge">
<title>[root] module.vpc_basic.aws_vpc.tfb (expand)&#45;&gt;[root] module.vpc_basic.var.enable_dns_hostnames (expand)</title>
<path fill="none" stroke="black" d="M1242.44,-153.31C1100.18,-141.52 826.41,-118.85 651.33,-104.34"/>
<polygon fill="black" stroke="black" points="651.51,-100.84 641.25,-103.51 650.93,-107.82 651.51,-100.84"/>
</g>
<!-- [root] module.vpc_basic.var.enable_dns_support (expand) -->
<g id="node26" class="node">
<title>[root] module.vpc_basic.var.enable_dns_support (expand)</title>
<ellipse fill="none" stroke="black" cx="953.28" cy="-90" rx="217.16" ry="18"/>
<text text-anchor="middle" x="953.28" y="-86.3" font-family="Times,serif" font-size="14.00">[root] module.vpc_basic.var.enable_dns_support (expand)</text>
</g>
<!-- [root] module.vpc_basic.aws_vpc.tfb (expand)&#45;&gt;[root] module.vpc_basic.var.enable_dns_support (expand) -->
<g id="edge23" class="edge">
<title>[root] module.vpc_basic.aws_vpc.tfb (expand)&#45;&gt;[root] module.vpc_basic.var.enable_dns_support (expand)</title>
<path fill="none" stroke="black" d="M1242.32,-143.97C1183.56,-133.2 1107.8,-119.31 1048.59,-108.46"/>
<polygon fill="black" stroke="black" points="1048.95,-104.97 1038.48,-106.61 1047.69,-111.86 1048.95,-104.97"/>
</g>
<!-- [root] module.vpc_basic.var.name (expand) -->
<g id="node27" class="node">
<title>[root] module.vpc_basic.var.name (expand)</title>
<ellipse fill="none" stroke="black" cx="1354.28" cy="-90" rx="166.27" ry="18"/>
<text text-anchor="middle" x="1354.28" y="-86.3" font-family="Times,serif" font-size="14.00">[root] module.vpc_basic.var.name (expand)</text>
</g>
<!-- [root] module.vpc_basic.aws_vpc.tfb (expand)&#45;&gt;[root] module.vpc_basic.var.name (expand) -->
<g id="edge24" class="edge">
<title>[root] module.vpc_basic.aws_vpc.tfb (expand)&#45;&gt;[root] module.vpc_basic.var.name (expand)</title>
<path fill="none" stroke="black" d="M1339.98,-143.7C1342.1,-135.9 1344.64,-126.51 1347,-117.83"/>
<polygon fill="black" stroke="black" points="1350.4,-118.67 1349.64,-108.1 1343.64,-116.84 1350.4,-118.67"/>
</g>
<!-- [root] output.addresses -->
<g id="node9" class="node">
<title>[root] output.addresses</title>
<polygon fill="none" stroke="black" points="643.78,-468 542.78,-468 542.78,-432 649.78,-432 649.78,-462 643.78,-468"/>
<polyline fill="none" stroke="black" points="643.78,-468 643.78,-462 "/>
<polyline fill="none" stroke="black" points="649.78,-462 643.78,-462 "/>
<text text-anchor="middle" x="596.28" y="-446.3" font-family="Times,serif" font-size="14.00">output.addresses</text>
</g>
<!-- [root] output.addresses&#45;&gt;[root] aws_instance.web (expand) -->
<g id="edge35" class="edge">
<title>[root] output.addresses&#45;&gt;[root] aws_instance.web (expand)</title>
<path fill="none" stroke="black" d="M584.91,-431.7C579.56,-423.56 573.08,-413.69 567.17,-404.7"/>
<polygon fill="black" stroke="black" points="569.94,-402.54 561.52,-396.1 564.09,-406.38 569.94,-402.54"/>
</g>
<!-- [root] output.elb_address -->
<g id="node10" class="node">
<title>[root] output.elb_address</title>
<polygon fill="none" stroke="black" points="942.78,-540 829.78,-540 829.78,-504 948.78,-504 948.78,-534 942.78,-540"/>
<polyline fill="none" stroke="black" points="942.78,-540 942.78,-534 "/>
<polyline fill="none" stroke="black" points="948.78,-534 942.78,-534 "/>
<text text-anchor="middle" x="889.28" y="-518.3" font-family="Times,serif" font-size="14.00">output.elb_address</text>
</g>
<!-- [root] output.elb_address&#45;&gt;[root] aws_elb.web (expand) -->
<g id="edge36" class="edge">
<title>[root] output.elb_address&#45;&gt;[root] aws_elb.web (expand)</title>
<path fill="none" stroke="black" d="M891.26,-503.7C892.14,-495.98 893.2,-486.71 894.18,-478.11"/>
<polygon fill="black" stroke="black" points="897.67,-478.44 895.33,-468.1 890.71,-477.64 897.67,-478.44"/>
</g>
<!-- [root] output.public_subnet_id -->
<g id="node11" class="node">
<title>[root] output.public_subnet_id</title>
<polygon fill="none" stroke="black" points="823.28,-468 681.28,-468 681.28,-432 829.28,-432 829.28,-462 823.28,-468"/>
<polyline fill="none" stroke="black" points="823.28,-468 823.28,-462 "/>
<polyline fill="none" stroke="black" points="829.28,-462 823.28,-462 "/>
<text text-anchor="middle" x="755.28" y="-446.3" font-family="Times,serif" font-size="14.00">output.public_subnet_id</text>
</g>
<!-- [root] output.public_subnet_id&#45;&gt;[root] module.vpc_basic.output.public_subnet_id (expand) -->
<g id="edge37" class="edge">
<title>[root] output.public_subnet_id&#45;&gt;[root] module.vpc_basic.output.public_subnet_id (expand)</title>
<path fill="none" stroke="black" d="M750.46,-431.87C743.61,-407.56 731.01,-362.82 722.89,-334.01"/>
<polygon fill="black" stroke="black" points="726.2,-332.87 720.12,-324.19 719.47,-334.76 726.2,-332.87"/>
</g>
<!-- [root] var.region -->
<g id="node17" class="node">
<title>[root] var.region</title>
<polygon fill="none" stroke="black" points="2159.78,-36 2094.78,-36 2094.78,0 2165.78,0 2165.78,-30 2159.78,-36"/>
<polyline fill="none" stroke="black" points="2159.78,-36 2159.78,-30 "/>
<polyline fill="none" stroke="black" points="2165.78,-30 2159.78,-30 "/>
<text text-anchor="middle" x="2130.28" y="-14.3" font-family="Times,serif" font-size="14.00">var.region</text>
</g>
<!-- [root] provider[&quot;registry.terraform.io/hashicorp/aws&quot;]&#45;&gt;[root] var.region -->
<g id="edge40" class="edge">
<title>[root] provider[&quot;registry.terraform.io/hashicorp/aws&quot;]&#45;&gt;[root] var.region</title>
<path fill="none" stroke="black" d="M2130.28,-71.7C2130.28,-63.98 2130.28,-54.71 2130.28,-46.11"/>
<polygon fill="black" stroke="black" points="2133.78,-46.1 2130.28,-36.1 2126.78,-46.1 2133.78,-46.1"/>
</g>
<!-- [root] module.vpc_basic.output.public_subnet_id (expand)&#45;&gt;[root] module.vpc_basic.aws_subnet.public (expand) -->
<g id="edge27" class="edge">
<title>[root] module.vpc_basic.output.public_subnet_id (expand)&#45;&gt;[root] module.vpc_basic.aws_subnet.public (expand)</title>
<path fill="none" stroke="black" d="M699.46,-287.7C691.71,-279.22 682.24,-268.86 673.76,-259.58"/>
<polygon fill="black" stroke="black" points="676.25,-257.12 666.92,-252.1 671.09,-261.85 676.25,-257.12"/>
</g>
<!-- [root] module.vpc_basic.output.cidr (expand)&#45;&gt;[root] module.vpc_basic.aws_vpc.tfb (expand) -->
<g id="edge26" class="edge">
<title>[root] module.vpc_basic.output.cidr (expand)&#45;&gt;[root] module.vpc_basic.aws_vpc.tfb (expand)</title>
<path fill="none" stroke="black" d="M1335.28,-215.7C1335.28,-207.98 1335.28,-198.71 1335.28,-190.11"/>
<polygon fill="black" stroke="black" points="1338.78,-190.1 1335.28,-180.1 1331.78,-190.1 1338.78,-190.1"/>
</g>
<!-- [root] module.vpc_basic.output.vpc_id (expand)&#45;&gt;[root] module.vpc_basic.aws_vpc.tfb (expand) -->
<g id="edge28" class="edge">
<title>[root] module.vpc_basic.output.vpc_id (expand)&#45;&gt;[root] module.vpc_basic.aws_vpc.tfb (expand)</title>
<path fill="none" stroke="black" d="M1043.22,-217.81C1099.44,-207.26 1174.74,-193.13 1234.81,-181.86"/>
<polygon fill="black" stroke="black" points="1235.51,-185.29 1244.69,-180 1234.21,-178.41 1235.51,-185.29"/>
</g>
<!-- [root] module.vpc_basic (close) -->
<g id="node21" class="node">
<title>[root] module.vpc_basic (close)</title>
<ellipse fill="none" stroke="black" cx="1218.28" cy="-378" rx="124.28" ry="18"/>
<text text-anchor="middle" x="1218.28" y="-374.3" font-family="Times,serif" font-size="14.00">[root] module.vpc_basic (close)</text>
</g>
<!-- [root] module.vpc_basic (close)&#45;&gt;[root] module.vpc_basic.aws_route.internet_access (expand) -->
<g id="edge12" class="edge">
<title>[root] module.vpc_basic (close)&#45;&gt;[root] module.vpc_basic.aws_route.internet_access (expand)</title>
<path fill="none" stroke="black" d="M1262.98,-361.12C1291.05,-351.14 1327.53,-338.18 1357.74,-327.45"/>
<polygon fill="black" stroke="black" points="1359.06,-330.69 1367.32,-324.04 1356.72,-324.09 1359.06,-330.69"/>
</g>
<!-- [root] module.vpc_basic (close)&#45;&gt;[root] module.vpc_basic.output.public_subnet_id (expand) -->
<g id="edge14" class="edge">
<title>[root] module.vpc_basic (close)&#45;&gt;[root] module.vpc_basic.output.public_subnet_id (expand)</title>
<path fill="none" stroke="black" d="M1132.1,-365.01C1049.3,-353.48 923.57,-335.99 831.86,-323.22"/>
<polygon fill="black" stroke="black" points="832.08,-319.72 821.69,-321.81 831.11,-326.65 832.08,-319.72"/>
</g>
<!-- [root] module.vpc_basic (close)&#45;&gt;[root] module.vpc_basic.output.cidr (expand) -->
<g id="edge13" class="edge">
<title>[root] module.vpc_basic (close)&#45;&gt;[root] module.vpc_basic.output.cidr (expand)</title>
<path fill="none" stroke="black" d="M1227.55,-360.02C1238.12,-341.4 1256.49,-311.11 1276.28,-288 1285.19,-277.6 1296.07,-267.29 1306.06,-258.56"/>
<polygon fill="black" stroke="black" points="1308.49,-261.08 1313.82,-251.93 1303.95,-255.76 1308.49,-261.08"/>
</g>
<!-- [root] module.vpc_basic (close)&#45;&gt;[root] module.vpc_basic.output.vpc_id (expand) -->
<g id="edge15" class="edge">
<title>[root] module.vpc_basic (close)&#45;&gt;[root] module.vpc_basic.output.vpc_id (expand)</title>
<path fill="none" stroke="black" d="M1219.7,-359.72C1220.33,-339.68 1218.07,-306.97 1199.28,-288 1182.32,-270.87 1133.21,-258.47 1084.06,-249.99"/>
<polygon fill="black" stroke="black" points="1084.35,-246.49 1073.91,-248.29 1083.2,-253.39 1084.35,-246.49"/>
</g>
<!-- [root] module.vpc_basic (expand) -->
<g id="node28" class="node">
<title>[root] module.vpc_basic (expand)</title>
<ellipse fill="none" stroke="black" cx="722.28" cy="-18" rx="131.08" ry="18"/>
<text text-anchor="middle" x="722.28" y="-14.3" font-family="Times,serif" font-size="14.00">[root] module.vpc_basic (expand)</text>
</g>
<!-- [root] module.vpc_basic.var.map_public_ip_on_launch (expand)&#45;&gt;[root] module.vpc_basic (expand) -->
<g id="edge32" class="edge">
<title>[root] module.vpc_basic.var.map_public_ip_on_launch (expand)&#45;&gt;[root] module.vpc_basic (expand)</title>
<path fill="none" stroke="black" d="M484.27,-149.01C382.51,-139.95 269.05,-126.01 253.28,-108 242.74,-95.96 242.62,-83.93 253.28,-72 275.48,-47.15 458.77,-32.49 589.5,-25.09"/>
<polygon fill="black" stroke="black" points="589.82,-28.58 599.61,-24.53 589.43,-21.59 589.82,-28.58"/>
</g>
<!-- [root] module.vpc_basic.var.public_subnet (expand)&#45;&gt;[root] module.vpc_basic (expand) -->
<g id="edge34" class="edge">
<title>[root] module.vpc_basic.var.public_subnet (expand)&#45;&gt;[root] module.vpc_basic (expand)</title>
<path fill="none" stroke="black" d="M200.02,-143.65C205.48,-122.89 217.77,-88.84 242.28,-72 295.72,-35.29 459.77,-23.6 581.28,-20.08"/>
<polygon fill="black" stroke="black" points="581.53,-23.58 591.43,-19.81 581.34,-16.58 581.53,-23.58"/>
</g>
<!-- [root] module.vpc_basic.var.cidr (expand)&#45;&gt;[root] module.vpc_basic (expand) -->
<g id="edge29" class="edge">
<title>[root] module.vpc_basic.var.cidr (expand)&#45;&gt;[root] module.vpc_basic (expand)</title>
<path fill="none" stroke="black" d="M1586.4,-77.17C1567.34,-75.33 1547.76,-73.53 1529.28,-72 1290.53,-52.23 1011.53,-35.27 852.01,-26.15"/>
<polygon fill="black" stroke="black" points="851.86,-22.64 841.68,-25.57 851.46,-29.63 851.86,-22.64"/>
</g>
<!-- [root] module.vpc_basic.var.enable_dns_hostnames (expand)&#45;&gt;[root] module.vpc_basic (expand) -->
<g id="edge30" class="edge">
<title>[root] module.vpc_basic.var.enable_dns_hostnames (expand)&#45;&gt;[root] module.vpc_basic (expand)</title>
<path fill="none" stroke="black" d="M544.97,-72.5C579.62,-62.04 624.52,-48.5 660.47,-37.65"/>
<polygon fill="black" stroke="black" points="661.79,-40.91 670.35,-34.67 659.77,-34.21 661.79,-40.91"/>
</g>
<!-- [root] module.vpc_basic.var.enable_dns_support (expand)&#45;&gt;[root] module.vpc_basic (expand) -->
<g id="edge31" class="edge">
<title>[root] module.vpc_basic.var.enable_dns_support (expand)&#45;&gt;[root] module.vpc_basic (expand)</title>
<path fill="none" stroke="black" d="M898.83,-72.5C864.33,-62.04 819.62,-48.5 783.83,-37.65"/>
<polygon fill="black" stroke="black" points="784.57,-34.22 773.99,-34.67 782.54,-40.92 784.57,-34.22"/>
</g>
<!-- [root] module.vpc_basic.var.name (expand)&#45;&gt;[root] module.vpc_basic (expand) -->
<g id="edge33" class="edge">
<title>[root] module.vpc_basic.var.name (expand)&#45;&gt;[root] module.vpc_basic (expand)</title>
<path fill="none" stroke="black" d="M1242.39,-76.61C1126.32,-63.75 946.05,-43.78 831.12,-31.06"/>
<polygon fill="black" stroke="black" points="831.23,-27.55 820.9,-29.92 830.46,-34.5 831.23,-27.55"/>
</g>
<!-- [root] provider[&quot;registry.terraform.io/hashicorp/aws&quot;] (close) -->
<g id="node29" class="node">
<title>[root] provider[&quot;registry.terraform.io/hashicorp/aws&quot;] (close)</title>
<ellipse fill="none" stroke="black" cx="1232.28" cy="-522" rx="227.46" ry="18"/>
<text text-anchor="middle" x="1232.28" y="-518.3" font-family="Times,serif" font-size="14.00">[root] provider[&quot;registry.terraform.io/hashicorp/aws&quot;] (close)</text>
</g>
<!-- [root] provider[&quot;registry.terraform.io/hashicorp/aws&quot;] (close)&#45;&gt;[root] aws_elb.web (expand) -->
<g id="edge38" class="edge">
<title>[root] provider[&quot;registry.terraform.io/hashicorp/aws&quot;] (close)&#45;&gt;[root] aws_elb.web (expand)</title>
<path fill="none" stroke="black" d="M1155.85,-505.03C1093.31,-491.96 1006.44,-473.81 951.04,-462.23"/>
<polygon fill="black" stroke="black" points="951.58,-458.77 941.07,-460.15 950.15,-465.62 951.58,-458.77"/>
</g>
<!-- [root] provider[&quot;registry.terraform.io/hashicorp/aws&quot;] (close)&#45;&gt;[root] module.vpc_basic.aws_route.internet_access (expand) -->
<g id="edge39" class="edge">
<title>[root] provider[&quot;registry.terraform.io/hashicorp/aws&quot;] (close)&#45;&gt;[root] module.vpc_basic.aws_route.internet_access (expand)</title>
<path fill="none" stroke="black" d="M1250.02,-503.9C1274,-480.46 1317.63,-436.6 1351.28,-396 1368.3,-375.48 1385.85,-350.76 1398.26,-332.59"/>
<polygon fill="black" stroke="black" points="1401.21,-334.49 1403.92,-324.25 1395.41,-330.56 1401.21,-334.49"/>
</g>
<!-- [root] root -->
<g id="node30" class="node">
<title>[root] root</title>
<ellipse fill="none" stroke="black" cx="889.28" cy="-594" rx="47.39" ry="18"/>
<text text-anchor="middle" x="889.28" y="-590.3" font-family="Times,serif" font-size="14.00">[root] root</text>
</g>
<!-- [root] root&#45;&gt;[root] output.addresses -->
<g id="edge42" class="edge">
<title>[root] root&#45;&gt;[root] output.addresses</title>
<path fill="none" stroke="black" d="M861.19,-579.38C810.1,-554.62 701.63,-502.05 640.52,-472.44"/>
<polygon fill="black" stroke="black" points="642.02,-469.28 631.5,-468.07 638.97,-475.58 642.02,-469.28"/>
</g>
<!-- [root] root&#45;&gt;[root] output.elb_address -->
<g id="edge43" class="edge">
<title>[root] root&#45;&gt;[root] output.elb_address</title>
<path fill="none" stroke="black" d="M889.28,-575.7C889.28,-567.98 889.28,-558.71 889.28,-550.11"/>
<polygon fill="black" stroke="black" points="892.78,-550.1 889.28,-540.1 885.78,-550.1 892.78,-550.1"/>
</g>
<!-- [root] root&#45;&gt;[root] output.public_subnet_id -->
<g id="edge44" class="edge">
<title>[root] root&#45;&gt;[root] output.public_subnet_id</title>
<path fill="none" stroke="black" d="M866.9,-577.92C853,-567.99 835.19,-554.24 821.28,-540 802.23,-520.48 784.03,-495.28 771.59,-476.68"/>
<polygon fill="black" stroke="black" points="774.39,-474.56 765.97,-468.13 768.54,-478.41 774.39,-474.56"/>
</g>
<!-- [root] root&#45;&gt;[root] module.vpc_basic (close) -->
<g id="edge41" class="edge">
<title>[root] root&#45;&gt;[root] module.vpc_basic (close)</title>
<path fill="none" stroke="black" d="M910.25,-577.77C924.16,-567.46 942.66,-553.34 958.28,-540 975.98,-524.89 977.56,-517.81 996.28,-504 1054.06,-461.38 1127.82,-422.55 1174.06,-399.84"/>
<polygon fill="black" stroke="black" points="1175.76,-402.91 1183.22,-395.38 1172.69,-396.62 1175.76,-402.91"/>
</g>
<!-- [root] root&#45;&gt;[root] provider[&quot;registry.terraform.io/hashicorp/aws&quot;] (close) -->
<g id="edge45" class="edge">
<title>[root] root&#45;&gt;[root] provider[&quot;registry.terraform.io/hashicorp/aws&quot;] (close)</title>
<path fill="none" stroke="black" d="M929.98,-584.7C982.49,-573.98 1075.3,-555.04 1144.28,-540.96"/>
<polygon fill="black" stroke="black" points="1145.17,-544.35 1154.27,-538.92 1143.77,-537.49 1145.17,-544.35"/>
</g>
</g>
</svg>
